#!OML:ASF G:\acrobat\cartwheel_test\acrobat_wednesday\Session 1\acrobatwednesday.ASF
:FULLY-SPECIFIED
:DEGREES
80
root 2.09489 14.8564 9.33246 217.226 -43.3977 -101.344
lowerback 19.1595 1.73221 -16.137
upperback 2.35656 -2.26319 -6.46348
thorax -7.91657 -0.869213 2.5536
lowerneck -28.3758 1.84542 -5.55732
upperneck 5.63086 2.30493 13.1064
head 5.98864 2.0337 5.54295
rclavicle -8.90555e-014 -1.84472e-013
rhumerus -6.80317 -40.9789 11.8197
rradius 41.6103
rwrist 9.24318
rhand -54.3256 -7.40504
rfingers 7.12502
rthumb -26.7349 -35.5362
lclavicle -8.90555e-014 -1.84472e-013
lhumerus 56.1413 39.5193 40.956
lradius 36.116
lwrist 50.4401
lhand -58.7336 270.615
lfingers 7.12502
lthumb -30.9454 -61.9731
rfemur 6.05743 1.09899 19.3518
rtibia 27.1193
rfoot -26.3819 6.53154
rtoes 0.952591
lfemur -34.7984 6.4496 52.8706
ltibia 7.29984
lfoot 121.403 163.181
ltoes 54.3816
81
root 2.64427 14.6726 9.57356 216.945 -41.2344 -105.364
lowerback 19.7872 1.44862 -16.3583
upperback 2.57374 -2.73301 -5.84835
thorax -7.8921 -1.09252 3.48391
lowerneck -27.1926 1.94947 -6.20802
upperneck 5.68724 2.61909 13.2789
head 5.7917 2.15358 5.70686
rclavicle 6.67916e-014 6.36111e-015
rhumerus -11.9307 -38.9012 13.9124
rradius 41.3532
rwrist 8.24559
rhand -51.6195 -13.4765
rfingers 7.12502
rthumb -24.1428 -41.9773
lclavicle 6.67916e-014 6.36111e-015
lhumerus 51.3165 41.0129 38.1884
lradius 33.6176
lwrist 52.2998
lhand -59.5349 274.936
lfingers 7.12502
lthumb -31.7089 -57.7999
rfemur 4.50661 -1.76114 19.5804
rtibia 27.2844
rfoot -24.0483 3.45331
rtoes 3.09032
lfemur -41.8555 21.5192 40.7745
ltibia 22.0605
lfoot 143.047 163.405
ltoes 59.179
82
root 3.19049 14.4702 9.81307 216.23 -39.3921 -109.653
lowerback 20.9223 1.42324 -16.5039
upperback 2.99947 -2.9437 -5.22374
thorax -7.9403 -1.20289 4.33624
lowerneck -25.7428 2.22433 -5.28374
upperneck 6.21061 2.93889 11.097
head 5.72867 2.15293 4.82724
rclavicle -1.59028e-014 6.36111e-014
rhumerus -17.5333 -37.6337 16.7989
rradius 40.6851
rwrist 8.81932
rhand -50.394 -14.0017
rfingers 7.12502
rthumb -22.9673 -42.6535
lclavicle -1.59028e-014 6.36111e-014
lhumerus 47.1836 41.8799 36.0867
lradius 30.7414
lwrist 53.416
lhand -60.5811 283.23
lfingers 7.12502
lthumb -32.7049 -49.7081
rfemur 3.62299 -4.63484 19.6881
rtibia 26.6077
rfoot -21.3053 1.1195
rtoes 3.65571
lfemur -47.2682 26.8617 32.5525
ltibia 32.2589
lfoot 167.128 147.368
ltoes 63.2783
83
root 3.71626 14.2874 10.0428 215.408 -37.8662 -114.164
lowerback 22.809 1.36318 -17.071
upperback 3.28385 -3.44178 -4.36467
thorax -8.43475 -1.38213 5.7938
lowerneck -25.5313 2.90067 -4.56259
upperneck 7.00703 3.54808 10.9076
head 5.91362 2.45175 4.72825
rclavicle -4.45278e-014 -7.63333e-014
rhumerus -22.1094 -37.3927 19.1885
rradius 40.0569
rwrist 9.44816
rhand -49.5942 -13.4651
rfingers 7.12502
rthumb -22.1995 -42.2103
lclavicle -4.45278e-014 -7.63333e-014
lhumerus 47.0254 44.5011 38.5057
lradius 25.6481
lwrist 49.9378
lhand -62.3027 300.446
lfingers 7.12502
lthumb -34.3411 -32.8466
rfemur 2.87109 -6.26149 20.0515
rtibia 25.5467
rfoot -18.6428 -2.94586
rtoes 4.32879
lfemur -50.3263 27.9055 26.6438
ltibia 38.5272
lfoot 196.45 148.464
ltoes 61.7626
84
root 4.23411 14.0829 10.2403 214.84 -35.5009 -117.864
lowerback 22.9444 1.38995 -17.8351
upperback 3.73016 -3.533 -3.77739
thorax -7.8789 -1.48147 6.8959
lowerneck -27.9201 2.95974 -5.11929
upperneck 11.325 3.14365 12.8671
head 7.70984 2.5214 5.67154
rclavicle 3.18055e-014 -1.63799e-013
rhumerus -26.1275 -37.7819 20.9508
rradius 39.3369
rwrist 8.19405
rhand -49.5315 -15.0117
rfingers 7.12502
rthumb -22.1394 -43.7641
lclavicle 3.18055e-014 -1.63799e-013
lhumerus 48.7933 48.4229 42.1945
lradius 20.9729
lwrist 46.3516
lhand -62.0087 326.171
lfingers 7.12502
lthumb -34.0619 -7.05876
rfemur 0.922098 -5.67237 20.5997
rtibia 24.7431
rfoot -17.5578 -0.090075
rtoes -0.525799
lfemur -51.5381 28.7259 22.4449
ltibia 43.2397
lfoot 205.903 150.69
ltoes 2.8728
85
root 4.72393 13.8931 10.4117 214.826 -33.0391 -121.308
lowerback 21.9992 1.3559 -18.4458
upperback 4.39181 -3.4572 -3.50918
thorax -6.57924 -1.61377 7.45617
lowerneck -28.285 3.3964 -4.43246
upperneck 11.9005 3.40407 12.7335
head 7.94946 2.66457 5.58215
rclavicle 7.95139e-014 1.68569e-013
rhumerus -30.5444 -39.1667 22.184
rradius 38.8984
rwrist 5.84003
rhand -49.8696 -17.8769
rfingers 7.12502
rthumb -22.464 -46.5904
lclavicle 7.95139e-014 1.68569e-013
lhumerus 49.1222 51.4402 43.3857
lradius 18.9269
lwrist 46.9486
lhand -58.5655 344.771
lfingers 7.12502
lthumb -30.7852 12.2137
rfemur -1.87547 -5.26334 20.7199
rtibia 23.8734
rfoot -16.7643 -3.47915
rtoes 7.56523
lfemur -53.121 29.426 18.7198
ltibia 48.1144
lfoot 210.247 151.382
ltoes 37.2056
86
root 5.18509 13.7771 10.5768 215.376 -31.5116 -124.733
lowerback 21.4277 1.13033 -18.5942
upperback 4.83778 -3.60251 -3.2296
thorax -5.69964 -1.80418 7.84685
lowerneck -28.6412 1.30109 -6.62088
upperneck 15.6976 1.48806 15.3668
head 9.50348 2.37381 6.90822
rclavicle 9.22361e-014 5.40694e-014
rhumerus -34.9223 -40.4454 23.2257
rradius 38.5263
rwrist 3.57581
rhand -49.9311 -20.7425
rfingers 7.12502
rthumb -22.5229 -49.4488
lclavicle 9.22361e-014 5.40694e-014
lhumerus 46.7869 52.1265 41.6949
lradius 19.6028
lwrist 48.9859
lhand -55.0409 355.543
lfingers 7.12502
lthumb -27.4192 23.5674
rfemur -5.09771 -5.65937 21.0033
rtibia 22.4429
rfoot -17.6884 -0.912
rtoes 5.21491
lfemur -56.7015 29.7075 14.9662
ltibia 53.8718
lfoot 214.387 152.887
ltoes 27.551
87
root 5.63324 13.7125 10.7176 215.839 -30.4379 -127.692
lowerback 21.0702 0.975369 -18.3975
upperback 5.1038 -3.63668 -2.94329
thorax -5.19155 -1.89555 8.04263
lowerneck -28.4924 1.21745 -7.44013
upperneck 16.3183 1.42165 16.7511
head 9.70263 2.49982 7.60484
rclavicle -5.40694e-014 -1.29608e-013
rhumerus -38.7857 -41.1593 23.8117
rradius 38.1547
rwrist 2.46447
rhand -49.389 -24.3324
rfingers 7.12502
rthumb -22.0026 -53.1009
lclavicle -5.40694e-014 -1.29608e-013
lhumerus 41.767 50.1098 36.5334
lradius 21.4774
lwrist 50.3661
lhand -52.5671 368.397
lfingers 7.12502
lthumb -25.051 36.7739
rfemur -8.02481 -3.99808 21.7603
rtibia 20.435
rfoot -19.0386 -1.72645
rtoes 8.74695
lfemur -61.0515 30.1477 11.6067
ltibia 59.7797
lfoot 216.356 153.985
ltoes 21.5041
88
root 6.07535 13.6965 10.8388 216.306 -29.5952 -130.544
lowerback 20.8365 0.957002 -18.1139
upperback 5.33164 -3.54243 -2.83337
thorax -4.85025 -1.91219 7.97163
lowerneck -27.4609 0.779908 -8.4969
upperneck 15.8687 0.94089 18.5875
head 9.44675 2.43376 8.36341
rclavicle -6.04305e-014 -6.91771e-014
rhumerus -41.9128 -41.5473 23.647
rradius 37.6265
rwrist 2.18968
rhand -48.7387 -27.7312
rfingers 7.12502
rthumb -21.3781 -56.5718
lclavicle -6.04305e-014 -6.91771e-014
lhumerus 39.4838 47.9495 33.3086
lradius 23.2752
lwrist 49.4108
lhand -53.1436 365.601
lfingers 7.12502
lthumb -25.6033 33.8995
rfemur -10.8132 -1.94972 22.3583
rtibia 18.036
rfoot -19.8459 1.06592
rtoes 6.50053
lfemur -65.322 30.629 8.34742
ltibia 64.8406
lfoot 218.354 155.231
ltoes 15.5591
89
root 6.51567 13.7201 10.9508 216.753 -28.8718 -133.17
lowerback 20.4423 1.11577 -17.6717
upperback 5.72094 -3.17204 -2.84486
thorax -4.33688 -1.82884 7.60668
lowerneck -26.8828 0.771648 -9.93345
upperneck 15.1907 -0.36417 20.3538
head 9.31914 1.2496 8.95314
rclavicle 1.24042e-013 2.91021e-013
rhumerus -44.2988 -42.1675 22.9148
rradius 36.9885
rwrist 1.78698
rhand -48.1774 -29.7415
rfingers 7.12502
rthumb -20.8389 -58.6424
lclavicle 1.24042e-013 2.91021e-013
lhumerus 37.2167 45.1528 28.6247
lradius 25.0459
lwrist 50.526
lhand -53.9727 365.021
lfingers 7.12502
lthumb -26.3972 33.2037
rfemur -13.5903 0.00922032 22.4178
rtibia 15.9939
rfoot -20.1758 3.52955
rtoes 5.10467
lfemur -68.3664 31.2611 5.76999
ltibia 67.9743
lfoot 219.899 156.561
ltoes 9.41126
90
root 6.95525 13.7837 11.0536 217.006 -28.3686 -135.489
lowerback 20.1656 1.42308 -17.0803
upperback 6.19252 -2.61109 -2.83382
thorax -3.84498 -1.65508 7.15142
lowerneck -26.5288 -0.0574635 -10.5321
upperneck 15.3738 -1.38977 20.6839
head 9.51535 0.764896 9.05394
rclavicle 9.22361e-014 1.17283e-013
rhumerus -45.4861 -43.1804 21.5545
rradius 36.343
rwrist 1.18249
rhand -47.8459 -30.3908
rfingers 7.12502
rthumb -20.5204 -59.3263
lclavicle 9.22361e-014 1.17283e-013
lhumerus 33.8679 41.4673 21.7066
lradius 27.0771
lwrist 54.3917
lhand -54.727 362.485
lfingers 7.12502
lthumb -27.119 30.5567
rfemur -15.7825 1.57245 22.3437
rtibia 13.7811
rfoot -20.8443 3.53965
rtoes 3.94991
lfemur -69.4801 31.9456 4.2829
ltibia 68.6786
lfoot 221.07 158.771
ltoes 4.87826
